<?xml version="1.0" encoding="UTF-8" standalone="no"?>
<!-- Created with Inkscape (http://www.inkscape.org/) -->

<svg
   width="1083.7333mm"
   height="1083.7333mm"
   viewBox="0 0 1083.7333 1083.7333"
   version="1.1"
   id="svg1"
   xml:space="preserve"
   inkscape:version="1.4 (e7c3feb1, 2024-10-09)"
   sodipodi:docname="PlebisOnlineLogoMask.svg"
   xmlns:inkscape="http://www.inkscape.org/namespaces/inkscape"
   xmlns:sodipodi="http://sodipodi.sourceforge.net/DTD/sodipodi-0.dtd"
   xmlns="http://www.w3.org/2000/svg"
   xmlns:svg="http://www.w3.org/2000/svg"><sodipodi:namedview
     id="namedview1"
     pagecolor="#505050"
     bordercolor="#eeeeee"
     borderopacity="1"
     inkscape:showpageshadow="0"
     inkscape:pageopacity="0"
     inkscape:pagecheckerboard="0"
     inkscape:deskcolor="#505050"
     inkscape:document-units="mm"
     inkscape:zoom="0.15006094"
     inkscape:cx="1972.5319"
     inkscape:cy="2035.8395"
     inkscape:window-width="1512"
     inkscape:window-height="916"
     inkscape:window-x="0"
     inkscape:window-y="38"
     inkscape:window-maximized="0"
     inkscape:current-layer="layer1" /><defs
     id="defs1" /><g
     inkscape:label="Layer 1"
     inkscape:groupmode="layer"
     id="layer1"
     transform="translate(438.94373,398.99164)"><path
       style="fill:#000000"
       d="m -222.71311,468.51082 -134.73895,-134.73915 0,-190.89686 0,-190.89687 134.73915,-134.73896 134.739152,-134.73896 190.896868,0 190.89686,0 134.73896,134.73916 134.73896,134.73915 0,191.02916 0,191.02915 L 428.69103,468.64331 294.08417,603.24998 H 103.05501 -87.974147 Z m 544.18184,35.6527 49.07968,-49.0802 H 102.79062 -164.96716 l 49.07967,49.0802 49.079668,49.08021 H 102.79062 272.38906 Z M 77.258331,416.3879 c 0,-0.0364 -55.721247,-55.7874 -123.824994,-123.89103 L -170.39166,168.67209 v 123.89103 123.89103 h 123.824997 c 68.103747,0 123.824994,-0.0298 123.824994,-0.0663 z M 376.23748,292.56312 V 168.67209 L 252.41249,292.49687 c -68.10375,68.10363 -123.825,123.85459 -123.825,123.89103 0,0.0364 55.72125,0.0663 123.825,0.0663 h 123.82499 z m -585.52288,-149.62171 0,-267.6919 -49.08021,49.079668 -49.08021,49.079671 V 143.00676 312.60467 l 49.0138,49.01432 c 26.95758,26.95788 49.04368,49.01433 49.0802,49.01433 0.0365,0 0.0664,-120.46136 0.0664,-267.69191 z M 513.29164,142.875 V -26.591151 l -49.0802,-49.079671 -49.08021,-49.079668 V 142.875 410.50049 l 49.08021,-49.07967 49.0802,-49.07967 z M 224.89582,264.71562 346.73623,142.875 224.89582,21.034381 103.05542,-100.80624 -18.851453,21.10042 -140.75832,143.00708 -18.98396,264.78166 c 66.975901,66.97602 121.83399,121.77458 121.90687,121.77458 0.0729,0 54.96069,-54.82828 121.97291,-121.84062 z M -46.566663,-6.7468671 77.125827,-130.43957 H -46.632915 -170.39166 V -6.7468671 c 0,68.0309861 0.0298,123.6926971 0.0663,123.6926971 0.0364,0 55.72787,-55.661711 123.758737,-123.6926971 z m 422.804143,0 V -130.43957 H 252.47874 l -123.75874,0 123.69249,123.6927029 C 320.44336,61.284119 376.13479,116.94583 376.17123,116.94583 c 0.0364,0 0.0663,-55.661711 0.0663,-123.6926971 z m -54.76875,-211.6666529 -49.07967,-49.08021 -169.46615,0 H -66.543238 l -49.079672,49.08021 -49.07967,49.0802 h 267.62549 l 267.6255,0 z"
       id="path2" /></g></svg>
